<svg width="176" height="31" viewBox="0 0 176 31" fill="none" xmlns="http://www.w3.org/2000/svg">
<path d="M15.0027 24.6458L9.14294 27.7257C7.88032 28.3898 6.40532 27.3178 6.64594 25.9116L7.76482 19.3861L3.02394 14.764C2.00182 13.7686 2.56594 12.0341 3.97694 11.8278L10.5289 10.8762L13.4588 4.93833C14.0901 3.65858 15.9137 3.65858 16.5449 4.93833L19.4748 10.8762L26.0269 11.8278C27.4379 12.0326 28.0021 13.767 26.9802 14.764L22.2392 19.3861L23.3581 25.9116C23.5987 27.318 22.1236 28.3898 20.8611 27.7257L15.0027 24.6458Z" fill="url(#paint0_linear_706_1170)"/>
<path d="M51.0027 24.6458L45.1429 27.7257C43.8803 28.3898 42.4053 27.3178 42.6459 25.9116L43.7648 19.3861L39.0239 14.764C38.0018 13.7686 38.5659 12.0341 39.9769 11.8278L46.5289 10.8762L49.4588 4.93833C50.0901 3.65858 51.9137 3.65858 52.5449 4.93833L55.4748 10.8762L62.0269 11.8278C63.4379 12.0326 64.0021 13.767 62.9802 14.764L58.2392 19.3861L59.3581 25.9116C59.5987 27.318 58.1236 28.3898 56.8611 27.7257L51.0027 24.6458Z" fill="url(#paint1_linear_706_1170)"/>
<path d="M88.0027 24.6458L82.1429 27.7257C80.8803 28.3898 79.4053 27.3178 79.6459 25.9116L80.7648 19.3861L76.0239 14.764C75.0018 13.7686 75.5659 12.0341 76.9769 11.8278L83.5289 10.8762L86.4588 4.93833C87.0901 3.65858 88.9137 3.65858 89.5449 4.93833L92.4748 10.8762L99.0269 11.8278C100.438 12.0326 101.002 13.767 99.9802 14.764L95.2392 19.3861L96.3581 25.9116C96.5987 27.318 95.1236 28.3898 93.8611 27.7257L88.0027 24.6458Z" fill="url(#paint2_linear_706_1170)"/>
<path d="M124.003 24.6458L118.143 27.7257C116.88 28.3898 115.405 27.3178 115.646 25.9116L116.765 19.3861L112.024 14.764C111.002 13.7686 111.566 12.0341 112.977 11.8278L119.529 10.8762L122.459 4.93833C123.09 3.65858 124.914 3.65858 125.545 4.93833L128.475 10.8762L135.027 11.8278C136.438 12.0326 137.002 13.767 135.98 14.764L131.239 19.3861L132.358 25.9116C132.599 27.318 131.124 28.3898 129.861 27.7257L124.003 24.6458Z" fill="url(#paint3_linear_706_1170)"/>
<path d="M161.003 24.6458L155.143 27.7257C153.88 28.3898 152.405 27.3178 152.646 25.9116L153.765 19.3861L149.024 14.764C148.002 13.7686 148.566 12.0341 149.977 11.8278L156.529 10.8762L159.459 4.93833C160.09 3.65858 161.914 3.65858 162.545 4.93833L165.475 10.8762L172.027 11.8278C173.438 12.0326 174.002 13.767 172.98 14.764L168.239 19.3861L169.358 25.9116C169.599 27.318 168.124 28.3898 166.861 27.7257L161.003 24.6458Z" fill="url(#paint4_linear_706_1170)"/>
<defs>
<linearGradient id="paint0_linear_706_1170" x1="15.0019" y1="3.97795" x2="15.0019" y2="27.928" gradientUnits="userSpaceOnUse">
<stop stop-color="#FFE61C"/>
<stop offset="1" stop-color="#FFA929"/>
</linearGradient>
<linearGradient id="paint1_linear_706_1170" x1="51.0019" y1="3.97795" x2="51.0019" y2="27.928" gradientUnits="userSpaceOnUse">
<stop stop-color="#FFE61C"/>
<stop offset="1" stop-color="#FFA929"/>
</linearGradient>
<linearGradient id="paint2_linear_706_1170" x1="88.0019" y1="3.97795" x2="88.0019" y2="27.928" gradientUnits="userSpaceOnUse">
<stop stop-color="#FFE61C"/>
<stop offset="1" stop-color="#FFA929"/>
</linearGradient>
<linearGradient id="paint3_linear_706_1170" x1="124.002" y1="3.97795" x2="124.002" y2="27.928" gradientUnits="userSpaceOnUse">
<stop stop-color="#FFE61C"/>
<stop offset="1" stop-color="#FFA929"/>
</linearGradient>
<linearGradient id="paint4_linear_706_1170" x1="161.002" y1="3.97795" x2="161.002" y2="27.928" gradientUnits="userSpaceOnUse">
<stop stop-color="#FFE61C"/>
<stop offset="1" stop-color="#FFA929"/>
</linearGradient>
</defs>
</svg>
