<svg width="72" height="73" viewBox="0 0 72 73" fill="none" xmlns="http://www.w3.org/2000/svg">
<g filter="url(#filter0_d_499_5208)">
<circle cx="32" cy="32" r="31.5" transform="matrix(-1 0 0 1 68 0.953125)" stroke="white" shape-rendering="crispEdges"/>
</g>
<path d="M48 31.9531C48.5523 31.9531 49 32.4008 49 32.9531C49 33.5054 48.5523 33.9531 48 33.9531L48 31.9531ZM23.2929 33.6602C22.9024 33.2697 22.9024 32.6365 23.2929 32.246L29.6569 25.8821C30.0474 25.4915 30.6805 25.4915 31.0711 25.8821C31.4616 26.2726 31.4616 26.9057 31.0711 27.2963L25.4142 32.9531L31.0711 38.61C31.4616 39.0005 31.4616 39.6337 31.0711 40.0242C30.6805 40.4147 30.0474 40.4147 29.6569 40.0242L23.2929 33.6602ZM48 33.9531L24 33.9531L24 31.9531L48 31.9531L48 33.9531Z" fill="white"/>
<defs>
<filter id="filter0_d_499_5208" x="0" y="0.953125" width="72" height="72" filterUnits="userSpaceOnUse" color-interpolation-filters="sRGB">
<feFlood flood-opacity="0" result="BackgroundImageFix"/>
<feColorMatrix in="SourceAlpha" type="matrix" values="0 0 0 0 0 0 0 0 0 0 0 0 0 0 0 0 0 0 127 0" result="hardAlpha"/>
<feOffset dy="4"/>
<feGaussianBlur stdDeviation="2"/>
<feComposite in2="hardAlpha" operator="out"/>
<feColorMatrix type="matrix" values="0 0 0 0 0.505882 0 0 0 0 0 0 0 0 0 1 0 0 0 1 0"/>
<feBlend mode="normal" in2="BackgroundImageFix" result="effect1_dropShadow_499_5208"/>
<feBlend mode="normal" in="SourceGraphic" in2="effect1_dropShadow_499_5208" result="shape"/>
</filter>
</defs>
</svg>
