<svg width="1920" height="667" viewBox="0 0 1920 667" fill="none" xmlns="http://www.w3.org/2000/svg">
<g opacity="0.3">
<path d="M1813.49 161.456C1815.49 164.486 1818.01 165.995 1820.88 166.576C1823.77 167.163 1827.04 166.811 1830.55 166.051L1831.38 165.872L1831.14 166.681C1830.12 170.134 1829.74 173.215 1830.26 175.922C1830.77 178.611 1832.17 180.97 1834.78 182.981C1837.42 185.012 1840.06 185.833 1842.68 185.727C1845.3 185.622 1847.95 184.59 1850.62 182.827C1851.07 182.371 1851.52 181.897 1851.94 181.379C1852.11 181.066 1852.32 180.756 1852.52 180.459C1852.58 180.373 1852.63 180.289 1852.69 180.207C1852.85 179.981 1853 179.763 1853.14 179.543C1853.53 178.926 1853.74 178.44 1853.71 178.042C1853.52 175.574 1853.76 173.655 1854.38 172.186C1855.01 170.702 1856.02 169.704 1857.29 169.072C1858.55 168.447 1860.06 168.189 1861.68 168.133C1863.3 168.077 1865.08 168.224 1866.92 168.432L1867.44 168.491L1867.35 169.007C1866.67 173.323 1867.3 177.42 1869.77 181.101C1870.08 181.422 1870.4 181.737 1870.72 182.056L1870.72 182.058C1871.03 182.372 1871.35 182.69 1871.66 183.014C1874.03 184.523 1876.42 185.466 1878.81 185.665C1881.22 185.863 1883.65 185.315 1886.12 183.784L1886.36 184.164L1886.12 183.784C1889.34 181.787 1890.98 179.221 1891.67 176.288C1892.36 173.33 1892.08 169.969 1891.37 166.394L1891.21 165.557L1892.02 165.822C1895.46 166.947 1898.51 167.281 1901.17 166.708C1903.83 166.138 1906.15 164.661 1908.14 162.073C1910.15 159.456 1910.96 156.83 1910.85 154.216C1910.75 151.605 1909.72 148.959 1907.96 146.309C1907.63 145.969 1907.3 145.644 1906.96 145.308C1906.8 145.154 1906.65 144.998 1906.48 144.837C1905.85 144.58 1905.21 144.266 1904.59 143.948C1904.43 143.865 1904.27 143.781 1904.11 143.699C1903.61 143.445 1903.13 143.197 1902.65 142.97C1901.37 142.364 1900.2 141.971 1899.14 142.089L1899.14 142.089C1896.48 142.371 1894.91 142.04 1894.12 140.778C1893.75 140.184 1893.6 139.444 1893.53 138.632C1893.48 137.97 1893.47 137.208 1893.46 136.376C1893.46 136.187 1893.46 135.994 1893.46 135.797V135.797L1893.45 135.701C1893.44 134.635 1893.43 133.688 1893.5 132.89C1893.57 132.071 1893.73 131.338 1894.12 130.76C1894.52 130.158 1895.13 129.782 1895.96 129.601C1896.77 129.423 1897.81 129.425 1899.14 129.574M1813.49 161.456L1899.09 130.071M1813.49 161.456C1811.76 158.841 1811.12 156.285 1811.31 153.779C1811.51 151.277 1812.55 148.781 1814.26 146.29C1814.46 146.089 1814.67 145.888 1814.88 145.683L1814.88 145.682C1815.1 145.478 1815.31 145.27 1815.52 145.062C1816.76 144.163 1818.08 143.308 1819.43 142.745C1820.79 142.178 1822.15 141.92 1823.5 142.189C1824.86 142.462 1825.89 142.524 1826.66 142.36C1827.46 142.188 1827.99 141.766 1828.29 141.136C1828.57 140.555 1828.64 139.83 1828.67 139.085C1828.68 138.807 1828.69 138.526 1828.7 138.237C1828.71 137.71 1828.72 137.158 1828.77 136.555L1828.77 136.555C1828.87 135.24 1828.91 134.09 1828.82 133.123C1828.73 132.157 1828.5 131.321 1828.01 130.675C1827 129.347 1825.11 129.08 1822.19 129.496C1821.28 129.621 1820.26 129.286 1819.1 128.743C1818.66 128.538 1818.23 128.312 1817.78 128.082C1817.64 128.01 1817.5 127.937 1817.36 127.865C1816.8 127.58 1816.23 127.298 1815.66 127.067L1814.81 126.213L1813.93 125.331C1812.41 122.785 1811.45 120.256 1811.3 117.749C1811.15 115.238 1811.82 112.711 1813.64 110.168C1815.65 107.35 1818.06 105.841 1820.84 105.254C1823.63 104.663 1826.83 104.999 1830.42 105.956L1831.25 106.176L1831.04 105.349C1830.13 101.808 1829.76 98.5445 1830.36 95.6758C1830.95 92.8303 1832.51 90.3372 1835.53 88.3271M1813.49 161.456L1835.53 88.3271M1899.14 129.574L1899.09 130.071M1899.14 129.574C1899.14 129.574 1899.14 129.574 1899.14 129.574L1899.09 130.071M1899.14 129.574C1900.2 129.692 1901.37 129.299 1902.65 128.695C1903.12 128.477 1903.59 128.238 1904.06 127.996C1904.24 127.906 1904.41 127.816 1904.59 127.725C1905.21 127.411 1905.85 127.102 1906.49 126.851M1899.09 130.071C1900.74 130.255 1902.51 129.347 1904.3 128.437C1905.12 128.015 1905.95 127.593 1906.77 127.278M1906.49 126.851L1906.41 126.925L1906.77 127.278M1906.49 126.851L1907.19 126.146L1907.93 125.403M1906.49 126.851C1906.52 126.838 1906.55 126.825 1906.59 126.812L1906.77 127.278M1906.77 127.278L1907.93 125.403M1907.93 125.403C1907.92 125.416 1907.92 125.43 1907.91 125.444L1908.32 125.721L1907.97 125.367L1907.93 125.403ZM1907.93 125.403C1909.59 122.9 1910.59 120.398 1910.76 117.892C1910.94 115.381 1910.28 112.824 1908.55 110.208C1906.52 107.157 1903.98 105.719 1901.1 105.172C1898.2 104.619 1894.95 104.973 1891.52 105.563L1890.72 105.7L1890.95 104.924C1892 101.503 1892.35 98.4455 1891.8 95.7616C1891.25 93.0933 1889.81 90.7522 1887.18 88.7654L1887.18 88.7644C1884.55 86.7583 1881.91 85.9316 1879.29 86.0466C1876.68 86.1616 1874.03 87.2189 1871.4 89.0728C1871.18 89.2886 1870.97 89.5107 1870.75 89.7356L1870.75 89.7365C1870.54 89.947 1870.34 90.1598 1870.13 90.3684M1907.93 125.403L1870.13 90.3684M1891.86 166.297C1892.04 166.357 1892.22 166.414 1892.4 166.47C1892.39 166.38 1892.37 166.29 1892.35 166.2L1891.86 166.297ZM1891.86 166.297L1891.71 166.773C1891.79 166.801 1891.88 166.83 1891.97 166.857C1891.93 166.671 1891.9 166.485 1891.86 166.297ZM1866.86 168.929L1866.8 169.426C1866.8 169.425 1866.79 169.425 1866.79 169.424C1866.81 169.259 1866.83 169.094 1866.86 168.929ZM1866.86 168.929L1866.37 168.851C1866.37 168.859 1866.36 168.866 1866.36 168.874C1866.53 168.892 1866.69 168.91 1866.86 168.929ZM1891.43 105.07C1891.49 104.891 1891.54 104.713 1891.59 104.536C1891.51 104.55 1891.43 104.563 1891.35 104.577L1891.43 105.07ZM1891.43 105.07L1891.91 105.216C1891.93 105.137 1891.96 105.057 1891.98 104.977C1891.8 105.008 1891.62 105.038 1891.43 105.07ZM1835.53 88.3271C1838.13 86.6109 1840.68 85.9817 1843.18 86.1897C1845.67 86.3975 1848.16 87.4443 1850.64 89.155C1850.84 89.3567 1851.04 89.5647 1851.25 89.7756L1851.25 89.7774C1851.44 89.9743 1851.63 90.1738 1851.83 90.3691C1852.09 90.9948 1852.42 91.6263 1852.75 92.2454C1852.84 92.3962 1852.92 92.546 1853 92.695C1853.27 93.1946 1853.53 93.6849 1853.77 94.1732C1854.41 95.4569 1854.79 96.5916 1854.63 97.5766C1854.63 97.5771 1854.63 97.5775 1854.63 97.578L1855.12 97.6583M1835.53 88.3271L1861.29 103.581M1855.12 97.6583C1854.25 102.844 1856.19 102.9 1859.38 102.991C1859.98 103.008 1860.64 103.027 1861.33 103.083M1855.12 97.6583C1855.39 96.0576 1854.41 94.2504 1853.43 92.4515C1853 91.655 1852.57 90.8601 1852.25 90.0854L1855.12 97.6583ZM1861.33 103.083L1861.29 103.581C1861.29 103.581 1861.29 103.581 1861.29 103.581M1861.33 103.083C1866.48 103.512 1866.94 102.089 1866.78 97.6852L1867.28 97.6691C1867.28 97.6689 1867.28 97.6687 1867.28 97.6685M1861.33 103.083L1861.29 103.581C1861.29 103.581 1861.29 103.581 1861.29 103.581M1861.29 103.581C1862.59 103.69 1863.64 103.685 1864.47 103.532C1865.31 103.376 1865.96 103.061 1866.43 102.524C1866.88 101.994 1867.11 101.308 1867.22 100.514C1867.32 99.7222 1867.32 98.7707 1867.28 97.6685M1867.28 97.6685C1867.24 96.5476 1867.67 95.3783 1868.27 94.1224C1868.5 93.6534 1868.74 93.1857 1868.99 92.7091C1869.07 92.5498 1869.16 92.3895 1869.24 92.2279C1869.56 91.6188 1869.87 90.9962 1870.13 90.3684M1867.28 97.6685L1870.13 90.3684M1886.4 160.627L1885.72 161.327C1885.32 161.085 1885.02 160.794 1884.79 160.465C1884.73 160.434 1884.66 160.406 1884.6 160.382C1884.22 160.247 1883.77 160.217 1883.26 160.266C1882.74 160.314 1882.19 160.438 1881.6 160.59C1881.41 160.64 1881.21 160.695 1881 160.749C1880.61 160.855 1880.21 160.963 1879.82 161.051C1878.67 161.315 1877.4 161.481 1876.41 160.807C1875.4 160.119 1874.89 158.707 1874.87 156.366L1874.87 156.364C1874.86 154.146 1875.12 152.448 1876.13 151.333C1877.15 150.204 1878.81 149.806 1881.23 149.819C1881.23 149.819 1881.23 149.819 1881.23 149.819L1881.23 150.319C1886.68 150.335 1885.98 153.05 1885.26 155.82C1884.94 157.093 1884.6 158.377 1884.86 159.417L1886.4 160.627ZM1886.4 160.627C1886.15 160.238 1885.85 159.942 1885.51 159.725L1886.4 160.627ZM1874.69 114.867C1874.41 117.145 1874.62 118.757 1875.26 119.885C1875.92 121.039 1876.97 121.597 1878.15 121.88C1879.23 122.136 1880.46 122.18 1881.69 122.223C1881.8 122.227 1881.9 122.23 1882.01 122.234C1883.36 122.283 1884.71 122.353 1885.96 122.686L1886.91 122.939L1886.55 122.023C1885.31 118.806 1885.85 116.091 1886.42 113.223C1886.55 112.575 1886.68 111.919 1886.8 111.248L1886.9 110.601L1886.25 110.669C1883.48 110.957 1881.41 111.176 1879.86 111.382C1878.32 111.588 1877.26 111.785 1876.53 112.04C1875.78 112.301 1875.31 112.649 1875.04 113.191C1874.83 113.622 1874.77 114.146 1874.71 114.678C1874.7 114.741 1874.7 114.804 1874.69 114.867ZM1874.69 114.867C1874.69 114.867 1874.69 114.866 1874.69 114.866L1875.18 114.926L1874.69 114.869C1874.69 114.868 1874.69 114.867 1874.69 114.867ZM1835.8 160.984L1835.81 162.494L1836.7 161.276C1837.18 160.625 1838 160.462 1839.18 160.567C1839.76 160.618 1840.38 160.729 1841.03 160.846L1841.03 160.846C1841.67 160.96 1842.34 161.08 1842.98 161.136C1844.24 161.246 1845.58 161.128 1846.44 160.035C1847.26 158.982 1847.51 157.175 1847.11 154.304L1847.11 154.304C1846.78 151.999 1846.15 150.587 1845.23 149.822C1844.29 149.037 1843.16 149.031 1842.11 149.22C1841.58 149.314 1841.04 149.463 1840.53 149.607L1840.46 149.626C1839.96 149.766 1839.49 149.899 1839.03 149.99C1838.06 150.182 1837.27 150.158 1836.65 149.701L1835.36 148.755L1835.88 150.269C1836.5 152.062 1836.49 153.716 1836.31 155.441C1836.26 155.932 1836.2 156.437 1836.13 156.953C1835.96 158.222 1835.79 159.566 1835.8 160.984ZM1836.62 110.424L1835.7 110.758C1836.31 114.777 1836.68 118.178 1836.1 121.994L1835.89 123.369L1836.93 122.441C1837.54 121.898 1838.32 121.796 1839.29 121.899C1839.77 121.951 1840.27 122.05 1840.8 122.156L1840.83 122.161C1841.34 122.263 1841.88 122.37 1842.41 122.428C1843.48 122.546 1844.61 122.476 1845.54 121.662C1846.44 120.865 1847.04 119.447 1847.3 117.158C1847.62 114.36 1847.3 112.624 1846.4 111.65C1845.49 110.655 1844.12 110.624 1842.86 110.777C1842.31 110.843 1841.74 110.95 1841.19 111.053C1841.09 111.071 1840.99 111.09 1840.9 111.108C1840.25 111.228 1839.63 111.333 1839.05 111.368C1837.91 111.437 1837.1 111.216 1836.62 110.424ZM1860.11 140.552L1860.11 140.551L1865.72 136.181C1865.65 135.322 1865.59 134.559 1865.47 133.917C1865.34 133.275 1865.15 132.7 1864.79 132.241C1864.04 131.286 1862.76 131.035 1860.76 131.156L1860.76 131.157C1860.48 131.177 1860.19 131.193 1859.91 131.209C1859.48 131.233 1859.07 131.257 1858.7 131.294C1858.09 131.355 1857.49 131.459 1857.01 131.715C1856.5 131.989 1856.14 132.428 1856.02 133.077C1855.9 133.676 1856 134.422 1856.27 135.344C1856.3 135.833 1856.24 136.376 1856.18 136.962C1856.18 137.002 1856.17 137.042 1856.17 137.082C1856.1 137.703 1856.04 138.39 1856.14 138.983C1856.25 139.613 1856.57 140.193 1857.28 140.498C1857.94 140.781 1858.86 140.792 1860.11 140.552Z" stroke="white"/>
<path d="M1851.21 86.9648L1851.21 86.9648L1851.2 86.952C1849.81 83.8953 1849.12 80.9708 1849.45 78.2836C1849.77 75.6155 1851.11 73.1255 1853.9 70.9292L1853.9 70.9288C1856.18 69.1336 1858.57 68.2564 1860.94 68.25C1863.32 68.2437 1865.71 69.1081 1868 70.8775C1870.81 73.0607 1872.16 75.5444 1872.51 78.2132C1872.85 80.9012 1872.18 83.8326 1870.83 86.9032C1870.69 87.2247 1870.65 87.5693 1870.62 87.8625C1870.61 87.9795 1870.61 88.0844 1870.6 88.1823C1870.59 88.299 1870.59 88.4059 1870.57 88.5116C1870.38 88.7036 1870.2 88.8988 1870.01 89.0919L1870.01 89.093C1869.8 89.304 1869.6 89.5124 1869.4 89.7155C1863.81 92.0021 1858.18 91.9536 1852.53 89.7135C1852.35 89.5245 1852.16 89.3304 1851.97 89.1336L1851.96 89.1322C1851.79 88.9559 1851.62 88.7775 1851.45 88.6019C1851.44 88.5296 1851.44 88.4549 1851.44 88.3769C1851.44 88.3576 1851.43 88.3379 1851.43 88.318C1851.43 88.196 1851.42 88.065 1851.41 87.9356C1851.39 87.6343 1851.35 87.2949 1851.21 86.9648Z" stroke="white"/>
<path d="M1914.05 147.25L1914.05 147.25C1913.13 147.081 1912.22 146.814 1911.3 146.517C1911.02 146.426 1910.73 146.331 1910.44 146.235C1909.85 146.038 1909.24 145.837 1908.64 145.659C1908.48 145.505 1908.33 145.354 1908.18 145.205C1907.85 144.881 1907.53 144.567 1907.22 144.24C1904.87 138.731 1904.9 133.21 1907.21 127.698L1907.92 126.988L1908.61 126.297C1909.19 126.121 1909.75 125.934 1910.3 125.75C1911.54 125.335 1912.75 124.932 1914 124.681C1916.64 124.183 1919.05 124.263 1921.17 125.024C1923.28 125.782 1925.13 127.231 1926.62 129.537C1929.33 133.75 1929.33 138.157 1926.65 142.37C1925.15 144.689 1923.31 146.144 1921.2 146.906C1919.09 147.67 1916.68 147.749 1914.05 147.25Z" stroke="white"/>
<path d="M1871.96 187.638L1871.96 187.64C1872.7 190.431 1872.83 193.029 1872.19 195.334C1871.55 197.63 1870.14 199.676 1867.7 201.361C1865.45 202.909 1863.14 203.654 1860.86 203.625C1858.58 203.597 1856.29 202.794 1854.08 201.18C1851.68 199.431 1850.32 197.346 1849.74 195.035C1849.16 192.714 1849.36 190.123 1850.18 187.36C1850.57 186.058 1850.96 184.782 1851.37 183.484C1851.81 183.053 1852.24 182.617 1852.68 182.159C1858.12 179.879 1863.59 179.923 1869.13 181.927C1869.43 182.238 1869.74 182.542 1870.04 182.843L1870.04 182.844C1870.34 183.143 1870.63 183.438 1870.92 183.737C1871.09 184.368 1871.26 184.999 1871.43 185.627L1871.43 185.629C1871.61 186.301 1871.79 186.97 1871.96 187.638Z" stroke="white"/>
<path d="M1795.39 129.753L1795.39 129.752C1797.73 126.134 1800.51 124.763 1803.54 124.511C1806.58 124.258 1809.88 125.129 1813.29 126.138L1814.13 126.974L1814.98 127.827C1817.13 133.379 1816.93 138.904 1814.79 144.428C1814.6 144.615 1814.41 144.802 1814.21 144.993L1814.21 144.994C1814.02 145.18 1813.83 145.368 1813.64 145.557C1810.26 146.635 1806.97 147.612 1803.91 147.464C1800.86 147.317 1798.02 146.054 1795.57 142.516C1794.14 140.451 1793.42 138.31 1793.39 136.174C1793.36 134.037 1794.01 131.87 1795.39 129.753Z" stroke="white"/>
<path d="M1928.07 173.02L1928.07 173.022C1928.2 179.049 1922.76 184.509 1916.71 184.381L1916.71 184.381C1910.99 184.279 1905.86 179.152 1905.73 173.43C1905.61 167.376 1911.04 161.943 1917.07 162.072L1917.07 162.072C1922.84 162.174 1927.97 167.277 1928.07 173.02Z" stroke="white"/>
<path d="M1794.07 172.919C1793.9 178.864 1799.25 184.324 1805.23 184.273L1794.07 172.919ZM1794.07 172.919C1794.25 167.251 1799.35 162.229 1805.02 162.152C1810.99 162.101 1816.35 167.561 1816.17 173.506C1815.99 179.202 1810.89 184.222 1805.23 184.273L1794.07 172.919Z" stroke="white"/>
<path d="M1834.83 191.478L1834.83 191.479C1835.06 197.45 1829.73 202.964 1823.73 202.964C1818.07 202.964 1812.89 197.969 1812.66 192.246C1812.43 186.301 1817.76 180.762 1823.76 180.762C1829.45 180.788 1834.63 185.76 1834.83 191.478Z" stroke="white"/>
<path d="M1916.3 109.808L1916.3 109.808C1921.94 110.166 1927.4 105.459 1927.99 99.7019L1927.99 99.7013C1928.61 93.7907 1923.57 87.9623 1917.53 87.5768L1916.3 109.808ZM1916.3 109.808C1910.24 109.422 1905.23 103.595 1905.84 97.6832L1905.84 97.6826M1916.3 109.808L1905.84 97.6826M1905.84 97.6826C1906.43 91.9254 1911.9 87.2186 1917.53 87.5768L1905.84 97.6826Z" stroke="white"/>
<path d="M1804.74 87.631L1804.74 87.631C1810.35 87.4006 1815.71 92.2122 1816.17 97.9135L1816.17 97.9142C1816.66 103.801 1811.54 109.522 1805.53 109.753L1805.53 109.753C1799.59 109.984 1794.08 104.654 1794.1 98.6809L1794.1 98.6765C1794.08 93.0145 1799.04 87.8619 1804.74 87.631Z" stroke="white"/>
<path d="M1898.76 68.4409C1892.51 68.1456 1886.7 73.7044 1886.68 80.0151L1898.76 68.4409ZM1898.76 68.4409C1904.75 68.7095 1909.93 74.134 1909.91 80.1225L1898.76 68.4409ZM1909.41 80.1203L1909.41 80.1204C1909.38 86.1507 1903.81 91.479 1897.85 91.1972L1897.84 91.1972C1892.12 90.9406 1887.15 85.7362 1887.18 80.0173L1887.18 80.0172C1887.2 73.9869 1892.77 68.6586 1898.74 68.9404L1898.74 68.9404C1904.46 69.197 1909.43 74.4014 1909.41 80.1203Z" stroke="white"/>
<path d="M1823.81 68.9952L1823.81 68.9952C1829.79 69.0209 1835.09 74.5597 1834.81 80.5022L1834.81 80.5034C1834.55 86.1983 1829.35 91.1423 1823.71 91.1167L1823.71 91.1167C1817.73 91.091 1812.43 85.5532 1812.68 79.6092C1812.97 73.9379 1818.15 68.9696 1823.81 68.9952Z" stroke="white"/>
<path d="M1909.41 191.735C1909.48 197.762 1904.02 203.144 1898.02 202.991C1892.3 202.836 1887.26 197.711 1887.18 191.99C1887.1 185.962 1892.54 180.581 1898.56 180.735C1904.28 180.889 1909.33 185.988 1909.41 191.735Z" stroke="white"/>
<path d="M1852.51 211.538L1852.51 211.537C1853.28 205.462 1848.88 200.362 1842.87 200.311L1852.51 211.538ZM1852.51 211.538C1852.1 214.763 1850.9 217.122 1849.06 218.621C1847.23 220.121 1844.69 220.816 1841.52 220.581L1841.52 220.581M1852.51 211.538L1841.52 220.581M1841.52 220.581C1838.3 220.347 1836.02 219.193 1834.51 217.371C1833.01 215.546 1832.23 212.991 1832.13 209.856M1841.52 220.581L1832.13 209.856M1832.13 209.856C1832.59 206.677 1833.71 204.296 1835.46 202.713C1837.22 201.126 1839.66 200.285 1842.87 200.311L1832.13 209.856Z" stroke="white"/>
<path d="M1786.33 144.563C1789.6 144.511 1792.01 145.433 1793.68 147.108C1795.35 148.784 1796.35 151.276 1796.67 154.487C1796.42 157.687 1795.48 160.198 1793.86 161.916C1792.23 163.632 1789.85 164.617 1786.59 164.643L1786.59 164.643C1783.35 164.669 1780.85 163.764 1779.14 162.103C1777.44 160.443 1776.47 157.965 1776.43 154.718L1776.43 154.718C1776.39 151.483 1777.29 148.986 1778.95 147.285C1780.6 145.584 1783.08 144.615 1786.33 144.563ZM1786.33 144.563L1786.32 144.063M1786.33 144.563L1786.32 144.063M1786.32 144.063C1793.06 143.955 1796.53 147.876 1797.17 154.482L1775.93 154.724C1775.85 148.064 1779.64 144.17 1786.32 144.063Z" stroke="white"/>
<path d="M1880.01 220.66L1880.01 220.66C1883.23 220.569 1885.59 219.534 1887.21 217.789C1888.82 216.043 1889.75 213.528 1889.99 210.371C1889.67 207.176 1888.67 204.722 1887 203.033C1885.33 201.341 1882.93 200.361 1879.7 200.23C1873.64 200 1868.92 204.956 1869.43 210.994L1880.01 220.66ZM1880.01 220.66C1876.8 220.752 1874.3 219.905 1872.55 218.288M1880.01 220.66L1872.55 218.288M1872.55 218.288C1870.79 216.67 1869.7 214.223 1869.43 210.994L1872.55 218.288Z" stroke="white"/>
<path d="M1796.51 117.699L1796.51 117.699C1796.38 120.946 1795.34 123.391 1793.59 125.001C1791.84 126.611 1789.31 127.447 1786.07 127.343C1782.83 127.225 1780.38 126.187 1778.77 124.436C1777.16 122.684 1776.33 120.153 1776.43 116.93C1776.55 113.665 1777.61 111.322 1779.38 109.747C1781.15 108.17 1783.7 107.306 1786.9 107.13C1790.08 107.528 1792.53 108.601 1794.16 110.321C1795.78 112.042 1796.64 114.471 1796.51 117.699Z" stroke="white"/>
<path d="M1832.31 61.2796L1832.31 61.2776C1832.35 58.0175 1833.33 55.5402 1835.04 53.8799C1836.76 52.2186 1839.28 51.3125 1842.53 51.3253C1845.81 51.3515 1848.18 52.374 1849.8 54.074C1851.42 55.7745 1852.35 58.2086 1852.66 61.1647C1852.31 64.5793 1851.29 67.1698 1849.61 68.8943C1847.92 70.6167 1845.51 71.5386 1842.24 71.4865C1838.98 71.4343 1836.49 70.4584 1834.83 68.7476C1833.16 67.0372 1832.26 64.5271 1832.31 61.2796Z" stroke="white"/>
<path d="M1879.98 51.2977L1879.98 51.2977C1883.2 51.3888 1885.56 52.4114 1887.16 54.1426C1888.77 55.8748 1889.69 58.3758 1889.94 61.5346C1889.63 64.7171 1888.65 67.1572 1886.99 68.8314C1885.33 70.5079 1882.94 71.476 1879.71 71.5936C1873.67 71.798 1868.99 66.946 1869.48 60.9088C1869.74 57.6937 1870.81 55.261 1872.56 53.6531C1874.3 52.0471 1876.78 51.2065 1879.98 51.2977Z" stroke="white"/>
<path d="M1804.95 201.385C1807.76 201.321 1810.04 202.179 1811.62 203.706C1813.21 205.234 1814.16 207.477 1814.24 210.27C1814.3 213.103 1813.41 215.235 1811.88 216.779C1810.34 218.321 1808.11 219.319 1805.4 219.796C1802.58 219.461 1800.28 218.558 1798.67 217.08C1797.06 215.599 1796.1 213.499 1796.03 210.676L1796.03 210.676C1795.97 207.859 1796.83 205.578 1798.36 203.988C1799.89 202.397 1802.14 201.45 1804.95 201.385ZM1804.95 201.385L1804.93 200.885L1804.95 201.385Z" stroke="white"/>
<path d="M1861.18 238.487C1858.4 238.153 1856.11 237.244 1854.5 235.758C1852.9 234.27 1851.93 232.162 1851.86 229.34C1851.8 226.51 1852.66 224.216 1854.21 222.615C1855.75 221.014 1858.01 220.06 1860.83 219.996L1861.18 238.487ZM1861.18 238.487C1863.99 238.023 1866.26 237.018 1867.82 235.466C1869.37 233.913 1870.25 231.768 1870.17 228.935C1870.1 226.129 1869.14 223.872 1867.54 222.333C1865.95 220.795 1863.66 219.931 1860.83 219.996L1861.18 238.487Z" stroke="white"/>
<path d="M1758.82 135.752L1758.82 135.75C1758.88 132.959 1759.83 130.73 1761.41 129.211C1763 127.693 1765.28 126.841 1768.08 126.893C1770.89 126.957 1772.95 127.936 1774.4 129.509C1775.86 131.078 1776.75 133.28 1777.12 135.868C1776.65 138.779 1775.65 141.085 1774.12 142.648C1772.58 144.212 1770.45 145.077 1767.65 145.013C1764.85 144.935 1762.62 143.988 1761.1 142.405C1759.58 140.821 1758.74 138.555 1758.82 135.752Z" stroke="white"/>
<path d="M1870.09 42.6149L1870.09 42.6171C1870.15 45.4345 1869.28 47.7085 1867.75 49.2926C1866.21 50.8772 1863.96 51.8183 1861.16 51.883C1858.34 51.9476 1856.07 51.0896 1854.48 49.5594C1852.9 48.0287 1851.96 45.7796 1851.89 42.9736C1851.84 40.1528 1852.73 38.0213 1854.28 36.481C1855.83 34.9421 1858.09 33.9501 1860.88 33.4989C1863.64 33.8332 1865.92 34.7417 1867.51 36.2234C1869.1 37.7074 1870.05 39.8075 1870.09 42.6149Z" stroke="white"/>
<path d="M1805.33 70.4656L1805.33 70.4656C1808.12 70.414 1810.21 69.4599 1811.68 67.873C1813.15 66.2887 1814.05 64.0285 1814.37 61.2822C1813.92 58.4924 1812.92 56.237 1811.39 54.6989C1809.86 53.1599 1807.74 52.2947 1804.95 52.3719L1804.95 52.372C1802.15 52.4366 1799.92 53.3773 1798.4 54.958C1796.88 56.5381 1796.02 58.8048 1796.09 61.6086L1805.33 70.4656ZM1805.33 70.4656C1802.52 70.5302 1800.26 69.6787 1798.68 68.1581M1805.33 70.4656L1798.68 68.1581M1798.68 68.1581C1797.09 66.637 1796.15 64.4012 1796.09 61.6087L1798.68 68.1581Z" stroke="white"/>
<path d="M1917.12 201.332L1917.12 201.332C1919.95 201.396 1922.06 202.37 1923.55 203.98C1925.03 205.588 1925.93 207.875 1926.27 210.648C1925.79 213.452 1924.78 215.728 1923.23 217.283C1921.68 218.839 1919.55 219.717 1916.71 219.64C1913.89 219.562 1911.63 218.602 1910.09 216.998C1908.55 215.394 1907.7 213.101 1907.77 210.271C1907.85 207.451 1908.81 205.194 1910.4 203.659C1912 202.125 1914.29 201.267 1917.12 201.332Z" stroke="white"/>
<path d="M1926.06 61.2537L1926.06 61.2538C1926.11 64.0854 1925.24 66.3801 1923.71 67.981C1922.17 69.582 1919.91 70.5356 1917.09 70.6002C1914.26 70.6648 1911.98 69.8005 1910.38 68.2596C1908.78 66.7181 1907.83 64.4547 1907.75 61.6349C1907.69 58.7877 1908.57 56.6436 1910.13 55.0938C1911.69 53.5451 1913.96 52.5464 1916.77 52.082C1919.55 52.4164 1921.84 53.3253 1923.44 54.8134C1925.04 56.304 1926.01 58.4177 1926.06 61.2537Z" stroke="white"/>
<path d="M1795.52 192.064L1795.52 192.066C1795.45 194.858 1794.51 197.094 1792.93 198.615C1791.35 200.136 1789.09 200.988 1786.28 200.923C1783.49 200.858 1781.26 199.918 1779.74 198.337C1778.22 196.757 1777.36 194.489 1777.4 191.684C1777.46 188.865 1778.44 186.79 1780.01 185.324C1781.58 183.861 1783.79 182.966 1786.37 182.593C1789.28 183.059 1791.6 184.059 1793.16 185.597C1794.73 187.135 1795.6 189.257 1795.52 192.064Z" stroke="white"/>
<path d="M1795.76 79.7878C1795.42 82.615 1794.52 84.9075 1793.05 86.5041C1791.57 88.1029 1789.49 89.0507 1786.69 89.1022C1783.89 89.154 1781.62 88.302 1780.04 86.7844C1778.46 85.2666 1777.52 83.0376 1777.45 80.2454L1795.76 79.7878ZM1795.76 79.7878C1795.28 77.0779 1794.29 74.8554 1792.76 73.33C1791.23 71.8029 1789.12 70.9314 1786.31 71.0086L1795.76 79.7878ZM1779.76 73.6051C1778.24 75.1819 1777.39 77.4417 1777.45 80.2453L1779.76 73.6051ZM1779.76 73.6051C1781.28 72.0274 1783.52 71.0863 1786.31 71.0086L1779.76 73.6051Z" stroke="white"/>
<path d="M1759.62 172.691L1759.62 172.69C1759.78 169.917 1760.71 167.92 1762.22 166.654C1763.73 165.384 1765.89 164.788 1768.59 164.971L1768.59 164.971C1771.13 165.139 1773.01 166.005 1774.26 167.406C1775.51 168.808 1776.17 170.809 1776.13 173.351C1776.06 176.138 1775.22 178.115 1773.78 179.43C1772.34 180.747 1770.24 181.464 1767.52 181.587C1764.79 181.269 1762.76 180.364 1761.44 178.921C1760.13 177.478 1759.46 175.427 1759.62 172.691Z" stroke="white"/>
<path d="M1897.89 51.1039L1897.89 51.1039C1895.34 51.0262 1893.4 50.2403 1892.09 48.8944C1890.77 47.5478 1890.02 45.5812 1889.97 43.0286C1889.93 40.2381 1890.69 38.2007 1892.07 36.8069C1893.46 35.4128 1895.54 34.5953 1898.28 34.3814C1901.01 34.5952 1903.09 35.4127 1904.48 36.8047C1905.87 38.1957 1906.64 40.2259 1906.59 42.9999C1906.52 45.7774 1905.67 47.8279 1904.23 49.1651C1902.78 50.5044 1900.65 51.195 1897.89 51.1039Z" stroke="white"/>
<path d="M1768.42 107.093C1765.53 106.917 1763.34 106.152 1761.87 104.807C1760.41 103.465 1759.61 101.479 1759.62 98.7085C1759.63 95.9411 1760.42 93.8766 1761.83 92.512C1763.23 91.1467 1765.31 90.4127 1768.06 90.4517L1768.06 90.4517C1770.6 90.4776 1772.54 91.2132 1773.88 92.5185C1775.22 93.8244 1776.01 95.7587 1776.13 98.2986C1776.25 101.07 1775.52 103.09 1774.2 104.497C1772.89 105.904 1770.92 106.762 1768.42 107.093Z" stroke="white"/>
<path d="M1897.74 237.472L1897.74 237.472C1894.96 237.316 1892.94 236.37 1891.66 234.846C1890.37 233.318 1889.76 231.136 1889.94 228.39L1889.94 228.39C1890.11 225.831 1890.99 223.925 1892.41 222.665C1893.83 221.403 1895.85 220.735 1898.41 220.774L1898.41 220.774C1901.24 220.813 1903.21 221.688 1904.53 223.12C1905.85 224.554 1906.57 226.61 1906.77 229.128C1906.44 232.055 1905.51 234.199 1904.05 235.576C1902.58 236.952 1900.51 237.628 1897.74 237.472Z" stroke="white"/>
<path d="M1815.48 228.857L1815.48 228.857C1815.57 226.08 1816.44 224.042 1817.9 222.72C1819.37 221.396 1821.51 220.724 1824.25 220.828C1826.8 220.932 1828.73 221.736 1830.02 223.097C1831.32 224.459 1832.06 226.44 1832.09 229.008C1832.12 231.818 1831.31 233.811 1829.94 235.168C1828.56 236.527 1826.55 237.31 1824.05 237.577C1821.12 237.322 1818.95 236.469 1817.53 235.059C1816.12 233.651 1815.39 231.618 1815.48 228.857Z" stroke="white"/>
<path d="M1823.22 51.0241L1823.22 51.0241C1820.45 50.8686 1818.45 49.9291 1817.19 48.4223C1815.92 46.9112 1815.32 44.7563 1815.5 42.0505L1815.5 42.05C1815.67 39.5168 1816.54 37.6313 1817.94 36.3852C1819.34 35.1372 1821.34 34.4757 1823.88 34.5143C1826.67 34.5795 1828.64 35.4241 1829.95 36.8622C1831.27 38.3029 1831.98 40.4089 1832.12 43.1282C1831.8 45.8529 1830.9 47.8844 1829.45 49.2003C1828.01 50.5168 1825.96 51.1798 1823.22 51.0241Z" stroke="white"/>
<path d="M1756.37 154.819L1756.37 154.819C1756.42 152.467 1755.72 150.622 1754.49 149.368C1753.25 148.114 1751.41 147.396 1749.05 147.408L1756.37 154.819ZM1756.37 154.819L1756.37 154.824M1756.37 154.819L1756.37 154.824M1756.37 154.824C1756.34 156.965 1755.64 158.582 1754.43 159.732C1753.22 160.881 1751.46 161.608 1749.24 161.873M1756.37 154.824L1749.24 161.873M1749.24 161.873C1746.96 161.633 1745.15 160.887 1743.92 159.665C1742.68 158.442 1741.98 156.691 1742.03 154.332C1742.08 152.196 1742.8 150.481 1743.99 149.298C1745.19 148.115 1746.91 147.421 1749.05 147.408L1749.24 161.873Z" stroke="white"/>
<path d="M1872.41 24.1529L1872.41 24.1525C1872.38 21.9864 1873.06 20.3359 1874.26 19.1372C1875.45 17.9389 1877.21 17.1489 1879.42 16.7928C1881.5 16.9425 1883.25 17.5483 1884.53 18.6139C1885.8 19.6812 1886.65 21.2458 1886.85 23.3992C1887.07 25.7766 1886.49 27.7013 1885.32 29.0589C1884.16 30.4165 1882.35 31.2648 1880.02 31.3931C1877.67 31.5213 1875.8 30.8546 1874.5 29.6174C1873.2 28.379 1872.43 26.5173 1872.41 24.1529Z" stroke="white"/>
<path d="M1742.06 117.284L1742.06 117.283C1742.03 115.156 1742.69 113.526 1743.87 112.341C1745.05 111.157 1746.79 110.374 1749.02 110.031C1751.07 110.167 1752.79 110.76 1754.05 111.811C1755.3 112.864 1756.14 114.415 1756.34 116.557C1756.56 118.923 1755.99 120.827 1754.84 122.167C1753.69 123.506 1751.91 124.342 1749.59 124.47C1747.25 124.598 1745.4 123.944 1744.12 122.722C1742.84 121.498 1742.09 119.65 1742.06 117.284Z" stroke="white"/>
<path d="M1841.94 240.458L1841.94 240.458C1844.25 240.33 1846.02 240.981 1847.31 242.202C1848.6 243.422 1849.46 245.258 1849.87 247.602C1849.63 249.849 1848.9 251.698 1847.7 252.989C1846.5 254.282 1844.78 255.062 1842.47 255.088C1840.15 255.101 1838.32 254.366 1837.06 253.095C1835.81 251.823 1835.08 249.965 1835.08 247.639C1835.08 245.509 1835.77 243.779 1836.96 242.555C1838.14 241.33 1839.85 240.573 1841.94 240.458Z" stroke="white"/>
<path d="M1842.55 16.925V16.925C1840.17 16.9121 1838.29 17.6438 1837.03 18.9155C1835.77 20.1855 1835.07 22.0489 1835.16 24.4083L1842.55 16.925ZM1842.55 16.925H1842.56M1842.55 16.925H1842.56M1842.56 16.925C1844.69 16.925 1846.32 17.6264 1847.5 18.8408C1848.68 20.0551 1849.44 21.8252 1849.76 24.0396M1842.56 16.925L1849.76 24.0396M1849.76 24.0396C1849.59 26.143 1848.94 27.8917 1847.85 29.1517C1846.75 30.414 1845.17 31.2287 1843.03 31.3944C1840.67 31.5742 1838.75 30.9624 1837.41 29.7705C1836.08 28.5787 1835.25 26.7571 1835.16 24.4085L1849.76 24.0396Z" stroke="white"/>
<path d="M1880 240.431L1880 240.431C1877.68 240.341 1875.79 241.008 1874.48 242.231C1873.17 243.452 1872.38 245.276 1872.33 247.596L1880 240.431ZM1880 240.431C1882.11 240.508 1883.82 241.245 1885.02 242.458C1886.22 243.671 1886.93 245.396 1886.98 247.516C1887.04 249.844 1886.33 251.591 1885.08 252.84C1883.83 254.087 1881.98 254.885 1879.67 255.217M1880 240.431L1879.67 255.217M1879.67 255.217C1877.38 254.911 1875.53 254.132 1874.27 252.897C1873 251.66 1872.28 249.921 1872.33 247.596L1879.67 255.217Z" stroke="white"/>
<path d="M1786.54 49.1967L1786.54 49.1967C1784.26 49.1838 1782.61 48.5097 1781.55 47.3583C1780.49 46.2052 1779.97 44.4949 1780.11 42.2629L1780.11 42.2626C1780.24 40.2289 1780.94 38.7362 1782.06 37.7694C1783.19 36.7999 1784.8 36.3032 1786.84 36.3932L1786.84 36.3932C1788.89 36.4827 1790.34 37.1477 1791.32 38.2384C1792.3 39.3312 1792.86 40.9131 1792.99 42.9467C1792.78 44.9652 1792.15 46.5199 1791.12 47.5666C1790.09 48.6116 1788.6 49.2095 1786.54 49.1967Z" stroke="white"/>
<path d="M1767.24 216.929L1767.24 216.929C1765.18 216.776 1763.69 216.041 1762.73 214.896C1761.78 213.746 1761.3 212.117 1761.42 210.071L1761.42 210.071C1761.53 207.998 1762.23 206.539 1763.34 205.569C1764.45 204.597 1766.05 204.061 1768.1 203.965C1770.13 204.189 1771.68 204.842 1772.71 205.898C1773.75 206.953 1774.33 208.471 1774.3 210.546C1774.27 212.852 1773.56 214.507 1772.38 215.55C1771.21 216.596 1769.47 217.097 1767.24 216.929Z" stroke="white"/>
<path d="M1917.35 30.1316L1917.35 30.1316C1919.15 30.0435 1920.48 29.3772 1921.41 28.3147C1922.33 27.2547 1922.9 25.7582 1923.07 23.9391C1922.74 22.1537 1922.09 20.7127 1921.1 19.722C1920.11 18.7298 1918.75 18.1478 1916.92 18.1604L1917.35 30.1316ZM1917.35 30.1316C1915.32 30.2336 1913.72 29.6656 1912.63 28.6223M1917.35 30.1316L1912.63 28.6223M1912.63 28.6223C1911.55 27.5791 1910.92 26.0044 1910.94 23.9777M1912.63 28.6223L1910.94 23.9777M1910.94 23.9777C1910.97 22.1701 1911.58 20.733 1912.6 19.7446C1913.62 18.7549 1915.09 18.1731 1916.92 18.1604L1910.94 23.9777Z" stroke="white"/>
<path d="M1805.35 18.2133L1805.34 18.2131C1803.54 18.1373 1802.06 18.6736 1801.01 19.6303C1799.96 20.5877 1799.31 22.0027 1799.2 23.7576L1805.35 18.2133ZM1805.35 18.2133C1807.15 18.2763 1808.47 18.9065 1809.42 19.9291C1810.36 20.949 1810.96 22.4009 1811.22 24.1837M1805.35 18.2133L1811.22 24.1837M1811.22 24.1837C1810.95 25.9662 1810.33 27.4319 1809.37 28.4529C1808.42 29.4757 1807.09 30.091 1805.31 30.1036L1811.22 24.1837ZM1800.7 28.4099C1801.74 29.4873 1803.31 30.1163 1805.31 30.1036L1800.7 28.4099ZM1800.7 28.4099C1799.66 27.3337 1799.09 25.7541 1799.2 23.7577L1800.7 28.4099Z" stroke="white"/>
<path d="M1792.91 228.901L1792.91 228.904C1792.95 231.187 1792.33 232.877 1791.2 233.975C1790.07 235.074 1788.37 235.656 1786.1 235.566L1786.1 235.565C1784.04 235.489 1782.52 234.821 1781.52 233.722C1780.53 232.62 1779.99 231.018 1780.03 228.96C1780.08 226.884 1780.71 225.392 1781.78 224.373C1782.85 223.353 1784.41 222.749 1786.46 222.576C1788.51 222.723 1790.09 223.315 1791.17 224.329C1792.25 225.34 1792.89 226.83 1792.91 228.901Z" stroke="white"/>
<path d="M1755.16 191.509L1755.16 191.51C1755.25 193.508 1754.67 195.089 1753.62 196.159C1752.57 197.23 1750.99 197.847 1748.98 197.809C1747.2 197.77 1745.78 197.155 1744.81 196.136C1743.83 195.116 1743.25 193.649 1743.24 191.835C1743.24 190.005 1743.87 188.686 1744.86 187.723C1745.84 186.765 1747.21 186.13 1748.76 185.738C1750.71 185.966 1752.27 186.556 1753.35 187.489C1754.43 188.424 1755.08 189.74 1755.16 191.509Z" stroke="white"/>
<path d="M1768.41 55.0298L1768.41 55.0298C1770.44 55.1576 1771.93 55.8668 1772.89 56.9934C1773.85 58.124 1774.34 59.7402 1774.25 61.7863L1774.25 61.7868C1774.16 63.8646 1773.46 65.2946 1772.4 66.258C1771.33 67.2219 1769.85 67.7658 1768.12 67.9652C1765.87 67.7251 1764.21 67.0734 1763.12 66.0288C1762.03 64.9877 1761.43 63.4951 1761.45 61.4367C1761.47 59.156 1762.15 57.5071 1763.31 56.4584C1764.46 55.4078 1766.17 54.8878 1768.41 55.0298Z" stroke="white"/>
<path d="M1811.25 247.99C1810.91 249.777 1810.25 251.218 1809.25 252.206C1808.26 253.195 1806.89 253.771 1805.05 253.746C1803.22 253.72 1801.75 253.132 1800.73 252.136C1799.71 251.142 1799.11 249.699 1799.1 247.878L1811.25 247.99ZM1811.25 247.99C1811.09 246.173 1810.53 244.676 1809.6 243.61C1808.68 242.541 1807.34 241.861 1805.52 241.747C1803.49 241.633 1801.89 242.189 1800.81 243.225C1799.72 244.261 1799.08 245.836 1799.1 247.878L1811.25 247.99Z" stroke="white"/>
<path d="M1922.97 248.047L1922.97 248.048C1922.89 249.834 1922.27 251.263 1921.26 252.245C1920.24 253.225 1918.8 253.799 1917 253.799C1914.99 253.786 1913.44 253.163 1912.41 252.095C1911.37 251.028 1910.8 249.458 1910.86 247.44L1910.86 247.438C1910.91 245.635 1911.57 244.339 1912.58 243.399C1913.58 242.465 1914.96 241.855 1916.51 241.488C1918.65 241.808 1920.3 242.483 1921.38 243.526C1922.47 244.568 1923.06 246.031 1922.97 248.047Z" stroke="white"/>
<path d="M1755.26 80.2111C1754.9 82.0223 1754.23 83.4798 1753.23 84.4658C1752.23 85.4528 1750.85 86.0092 1749.02 85.9337C1747.2 85.8576 1745.76 85.221 1744.78 84.1867C1743.81 83.154 1743.26 81.68 1743.32 79.8462C1743.4 78.0341 1744.03 76.5884 1745.07 75.6121C1746.1 74.6368 1747.57 74.0875 1749.41 74.1504C1751.24 74.2264 1752.58 74.8761 1753.52 75.9167C1754.46 76.9534 1755.04 78.421 1755.26 80.2111Z" stroke="white"/>
<path d="M1893.78 266.582L1893.78 266.582C1893.73 265.005 1894.17 263.846 1894.95 263.081C1895.74 262.313 1896.93 261.875 1898.52 261.888C1899.89 261.9 1900.86 262.369 1901.54 263.066C1902.22 263.762 1902.65 264.722 1902.88 265.781C1902.81 267.394 1902.42 268.6 1901.77 269.431C1901.12 270.259 1900.16 270.771 1898.82 270.907C1897.26 271.059 1896.04 270.718 1895.2 270.009C1894.36 269.302 1893.83 268.168 1893.78 266.582Z" stroke="white"/>
<path d="M1861.5 261.296L1861.5 261.296C1863.22 261.435 1864.44 262.078 1865.2 263.043C1865.96 264.012 1866.3 265.376 1866.12 267.056L1866.12 267.057C1865.97 268.526 1865.41 269.647 1864.54 270.392C1863.68 271.137 1862.47 271.546 1860.94 271.496L1860.94 271.496L1860.94 271.496C1859.19 271.458 1858 270.895 1857.21 270.032C1856.41 269.169 1855.96 267.951 1855.82 266.5C1856.08 264.583 1856.71 263.233 1857.63 262.391C1858.54 261.551 1859.82 261.157 1861.5 261.296Z" stroke="white"/>
<path d="M1823.46 270.852L1823.46 270.852C1822.13 270.79 1821.1 270.333 1820.4 269.603C1819.7 268.873 1819.29 267.823 1819.29 266.491C1819.29 264.939 1819.76 263.788 1820.54 263.039C1821.32 262.29 1822.49 261.879 1824.03 261.942L1824.04 261.942C1825.37 261.991 1826.33 262.449 1827.01 263.189C1827.69 263.931 1828.12 265.002 1828.3 266.361C1828.13 267.848 1827.65 268.992 1826.89 269.747C1826.13 270.502 1825.02 270.927 1823.46 270.852Z" stroke="white"/>
<path d="M1823.92 9.90909L1823.92 9.90912C1822.36 9.92171 1821.18 9.44482 1820.42 8.64296C1819.67 7.84208 1819.27 6.6503 1819.4 5.10559L1819.4 5.10306C1819.5 3.80207 1819.99 2.78391 1820.77 2.1081C1821.54 1.43255 1822.63 1.05878 1824 1.1334C1825.34 1.20778 1826.31 1.67842 1826.99 2.42411C1827.67 3.16756 1828.09 4.22984 1828.25 5.56839C1828.05 6.91165 1827.6 7.98896 1826.91 8.72791C1826.22 9.46598 1825.25 9.90911 1823.92 9.90909Z" stroke="white"/>
<path d="M1861.68 0.541347L1861.69 0.541682C1863.22 0.679224 1864.29 1.26465 1864.99 2.1163C1865.69 2.9702 1866.06 4.14257 1866.12 5.52968C1865.89 7.44538 1865.25 8.75286 1864.32 9.54827C1863.38 10.3454 1862.06 10.695 1860.36 10.5294C1858.82 10.3785 1857.71 9.79567 1856.99 8.91851C1856.27 8.03817 1855.91 6.80217 1856 5.25675C1856.11 3.46468 1856.73 2.22966 1857.67 1.47398C1858.62 0.713923 1859.97 0.375096 1861.68 0.541347Z" stroke="white"/>
<path d="M1897.74 9.96592L1897.74 9.96588C1896.44 9.82888 1895.43 9.32412 1894.76 8.55638C1894.09 7.79118 1893.72 6.71886 1893.81 5.36636C1893.91 3.828 1894.45 2.69835 1895.28 1.98375C1896.11 1.26988 1897.3 0.913807 1898.82 1.0516C1900.13 1.18709 1901.05 1.7251 1901.69 2.48176C1902.33 3.23219 1902.72 4.22788 1902.9 5.33229C1902.61 7.0172 1902.04 8.23869 1901.21 9.0025C1900.39 9.76411 1899.27 10.1284 1897.74 9.96592Z" stroke="white"/>
<path d="M1735.09 98.6814C1734.92 100.021 1734.48 101.097 1733.8 101.841C1733.11 102.586 1732.14 103.041 1730.81 103.066C1729.25 103.091 1728.06 102.626 1727.3 101.832C1726.53 101.039 1726.11 99.8531 1726.21 98.3086C1726.3 96.9928 1726.79 95.9692 1727.55 95.2888C1728.31 94.6085 1729.4 94.2285 1730.77 94.2908L1735.09 98.6814ZM1735.09 98.6814C1734.91 97.3539 1734.47 96.2968 1733.78 95.5582C1733.1 94.8178 1732.12 94.3528 1730.77 94.2908L1735.09 98.6814Z" stroke="white"/>
<path d="M1730.3 140.877L1730.3 140.877C1728.77 140.827 1727.62 140.345 1726.86 139.55C1726.09 138.755 1725.65 137.588 1725.65 136.06L1725.65 136.056C1725.64 134.31 1726.13 133.043 1726.98 132.221C1727.84 131.399 1729.13 130.95 1730.88 131.001C1732.4 131.064 1733.5 131.556 1734.25 132.371C1735 133.188 1735.46 134.39 1735.58 135.98C1735.46 137.631 1734.96 138.868 1734.12 139.679C1733.28 140.489 1732.04 140.941 1730.3 140.877Z" stroke="white"/>
<path d="M1730.69 177.613L1730.69 177.613C1729.13 177.601 1727.96 177.106 1727.21 176.292C1726.47 175.48 1726.09 174.282 1726.24 172.737L1726.24 172.736C1726.36 171.433 1726.88 170.414 1727.66 169.746C1728.45 169.08 1729.54 168.725 1730.91 168.837L1730.91 168.837C1732.24 168.936 1733.21 169.419 1733.88 170.174C1734.55 170.927 1734.96 171.995 1735.09 173.346C1734.88 174.673 1734.42 175.738 1733.71 176.466C1733 177.194 1732.02 177.626 1730.69 177.613Z" stroke="white"/>
</g>
<g clip-path="url(#clip0_676_1163)">
<path d="M99.1094 582.841C87.9305 582.876 73.0703 589.168 70.0875 601.25C68.8837 606.125 69.9539 611.349 73.8254 614.908C78.718 619.405 84.0898 615.296 82.7681 609.019C80.5967 598.708 67.9807 591.073 58.3917 590.965C52.8497 590.903 47.6501 593.556 45.6578 598.976C42.4785 607.626 48.0842 613.183 52.4373 620.043C57.8494 628.572 71.1368 644.18 64.0951 654.73C59.1526 662.134 46.9996 661.695 39.7522 658.66C31.2309 655.09 24.3777 647.641 20.5295 639.358C14.8107 627.05 17.2751 612.46 6.20652 602.4C1.43333 598.061 -4.2949 597.956 -9.21174 602.207C-13.6859 606.076 -13.5377 611.662 -13.9001 617.055C-14.3896 624.335 -14.3885 631.676 -13.9815 638.96C-13.5911 645.948 -8.74535 652.518 -1.26727 653.04C0.673938 653.175 2.84162 652.185 3.39825 650.323C3.81779 648.92 3.22375 647.372 2.24672 646.278C-4.86951 638.316 -14.1691 641.394 -20.2701 648.777C-25.7615 655.424 -29.1379 664.365 -27.2384 672.992C-26.6263 675.772 -25.3748 679.966 -28.8603 681.552C-31.4201 682.718 -34.4568 680.539 -35.8911 678.564C-39.1144 674.124 -42.8623 666.151 -49.0237 672.78C-50.5891 674.465 -51.5193 676.629 -52.3418 678.775C-53.3157 681.315 -54.2704 684.166 -55.9058 686.369" stroke="white" stroke-miterlimit="10" stroke-dasharray="5 5"/>
</g>
<defs>
<clipPath id="clip0_676_1163">
<rect width="187.109" height="95.2025" fill="white" transform="translate(99.1094 666.203) rotate(180)"/>
</clipPath>
</defs>
</svg>
