<?xml version="1.0" ?>
<!-- Uploaded to: SVG Repo, www.svgrepo.com, Generator: SVG Repo Mixer Tools -->
<svg fill="#000000" width="800px" height="800px" viewBox="0 0 32 32" xmlns="http://www.w3.org/2000/svg">
<title/>
<g id="Evernote">
<path d="M5.5,30A3.35,3.35,0,0,1,3,29a3.35,3.35,0,0,1-1-2.48V5.5A3.35,3.35,0,0,1,3,3,3.35,3.35,0,0,1,5.5,2h21A3.35,3.35,0,0,1,29,3,3.35,3.35,0,0,1,30,5.5v21A3.52,3.52,0,0,1,26.49,30Zm15.39-5.64q2.26-1.47,2.27-9c0-.85,0-1.74-.1-2.67L23,11.26v-.4a2.61,2.61,0,0,0-.31-1.26,2,2,0,0,0-1.67-1c-.68,0-1.21,0-1.6-.07l-1.13-.06-1-.05c-.15-.9-1-1.34-2.55-1.34s-2.15.3-2.15.9V9a5.55,5.55,0,0,1-.2,1.77c-.1.16-.37.23-.81.23h-.75l-.95,0a1,1,0,0,0-.76.33,1.24,1.24,0,0,0-.27.47,1.84,1.84,0,0,0,0,.33,23.5,23.5,0,0,0,.69,4.32A11.17,11.17,0,0,0,10,18.07a2.76,2.76,0,0,0,1.5.74,12.24,12.24,0,0,0,3.37.6,1.32,1.32,0,0,0,.57-.08,2.05,2.05,0,0,0,.63-1.43c0-.24.06-.36.1-.36s.09.08.15.24.13.3.19.43.73.47,1.8.69a7.21,7.21,0,0,1,1.42.43,1.42,1.42,0,0,1,.51.81,4.09,4.09,0,0,1,.12,1c0,.1,0,.27,0,.52a.93.93,0,0,1-.31.66,1.43,1.43,0,0,1-.7.15l-.51,0a4.64,4.64,0,0,0-.67,0c-.4,0-.6-.23-.6-.68a1.61,1.61,0,0,1,0-.34.27.27,0,0,1,.24-.23l.37,0h.46V19.86l-.48,0a4.49,4.49,0,0,0-1,.13,2,2,0,0,0-1.13.83,2,2,0,0,0-.21,1,2.55,2.55,0,0,0,.73,2,5.35,5.35,0,0,0,3,.66h.6A2.24,2.24,0,0,0,20.89,24.36ZM12,10.5a.75.75,0,0,0,.12-.48c0-.27,0-.57,0-.91,0-.82-.05-1.26-.15-1.31s-.59.44-1.42,1.33L9.27,10.5s.13,0,.37.07.81,0,1.39,0h.54A.87.87,0,0,0,12,10.5Zm7.67,4.76a2.71,2.71,0,0,0-.66.08.39.39,0,0,1-.06-.21,1.06,1.06,0,0,1,.06-.29.8.8,0,0,1,.3-.36,1,1,0,0,1,.61-.18c.6,0,.9.31.9.94a.87.87,0,0,1,0,.2A2.69,2.69,0,0,0,19.66,15.26Z"/>
</g>
</svg>