<svg width="24" height="24" viewBox="0 0 24 24" fill="none" xmlns="http://www.w3.org/2000/svg">
<path d="M21.8227 10.1979C21.9418 10.869 22.0011 11.5491 22 12.2303C22 15.2727 20.8906 17.8451 18.9599 19.5863H18.9625C17.2742 21.115 14.9533 22 12.2015 22C9.49587 22 6.90109 20.9465 4.98794 19.0712C3.07479 17.1958 2 14.6524 2 12.0003C2 9.34821 3.07479 6.80475 4.98794 4.92944C6.90109 3.05413 9.49587 2.0006 12.2015 2.0006C14.7336 1.97296 17.1788 2.90534 19.0263 4.60302L16.1137 7.45793C15.0607 6.47453 13.6557 5.93587 12.2015 5.95798C9.54016 5.95798 7.27926 7.71793 6.47335 10.0879C6.04679 11.3298 6.04679 12.6745 6.47335 13.9165H6.47717C7.28691 16.2827 9.54399 18.0426 12.2053 18.0426C13.5799 18.0426 14.7608 17.6976 15.6763 17.0876H15.6725C16.2043 16.7425 16.6591 16.2953 17.0096 15.773C17.36 15.2508 17.5988 14.6643 17.7115 14.049H12.2015V10.1991L21.8227 10.1979Z" fill="white"/>
</svg>
