<svg width="72" height="73" viewBox="0 0 72 73" fill="none" xmlns="http://www.w3.org/2000/svg">
<g filter="url(#filter0_d_499_5211)">
<circle cx="36" cy="32.9531" r="31.5" stroke="white" shape-rendering="crispEdges"/>
</g>
<path d="M24 31.9531C23.4477 31.9531 23 32.4008 23 32.9531C23 33.5054 23.4477 33.9531 24 33.9531L24 31.9531ZM48.7071 33.6602C49.0976 33.2697 49.0976 32.6365 48.7071 32.246L42.3431 25.8821C41.9526 25.4915 41.3195 25.4915 40.9289 25.8821C40.5384 26.2726 40.5384 26.9057 40.9289 27.2963L46.5858 32.9531L40.9289 38.61C40.5384 39.0005 40.5384 39.6337 40.9289 40.0242C41.3195 40.4147 41.9526 40.4147 42.3431 40.0242L48.7071 33.6602ZM24 33.9531L48 33.9531L48 31.9531L24 31.9531L24 33.9531Z" fill="white"/>
<defs>
<filter id="filter0_d_499_5211" x="0" y="0.953125" width="72" height="72" filterUnits="userSpaceOnUse" color-interpolation-filters="sRGB">
<feFlood flood-opacity="0" result="BackgroundImageFix"/>
<feColorMatrix in="SourceAlpha" type="matrix" values="0 0 0 0 0 0 0 0 0 0 0 0 0 0 0 0 0 0 127 0" result="hardAlpha"/>
<feOffset dy="4"/>
<feGaussianBlur stdDeviation="2"/>
<feComposite in2="hardAlpha" operator="out"/>
<feColorMatrix type="matrix" values="0 0 0 0 0.505882 0 0 0 0 0 0 0 0 0 1 0 0 0 1 0"/>
<feBlend mode="normal" in2="BackgroundImageFix" result="effect1_dropShadow_499_5211"/>
<feBlend mode="normal" in="SourceGraphic" in2="effect1_dropShadow_499_5211" result="shape"/>
</filter>
</defs>
</svg>
